<svg xmlns="http://www.w3.org/2000/svg" xmlns:xlink="http://www.w3.org/1999/xlink" viewBox="0 0 55.394 55.463" xml:space="preserve">
<path style="fill:#999999;" d="M21.5,43C9.645,43,0,33.355,0,21.5S9.645,0,21.5,0C33.355,0,43,9.645,43,21.5S33.355,43,21.5,43z,M21.5,4C11.851,4,4,11.851,4,21.5C4,31.149,11.851,39,21.5,39S39,31.149,39,21.5C39,11.851,31.149,4,21.5,4z"/>
<path style="fill:#999999;" d="M51.963,53.963c-0.512,0-1.023-0.195-1.414-0.586L33.875,36.703c-0.781-0.781-0.781-2.047,0-2.828,s2.047-0.781,2.828,0l16.674,16.675c0.781,0.781,0.781,2.047,0,2.828C52.986,53.768,52.475,53.963,51.963,53.963z"/>
<path style="fill:#999999;" d="M54.275,49.326L42.45,37.5c-0.264-0.265-0.693-0.265-0.957,0l-4.047,4.047,c-0.234,0.234-0.234,0.614,0,0.849l12.042,12.042c0.683,0.684,1.579,1.025,2.475,1.025c0.83,0,1.661-0.294,2.321-0.881,C55.812,53.228,55.718,50.769,54.275,49.326"/>
</svg>
