<svg xmlns="http://www.w3.org/2000/svg" xmlns:xlink="http://www.w3.org/1999/xlink" viewBox="0 0 61.625 58.813" xml:space="preserve">
<g style="fill:#fff">
	<path d="M59.125,51H2.5C1.119,51,0,49.881,0,48.5c0-5.845,5.391-11.874,7.55-14.055V22.5C7.55,9.462,17.333,0,30.812,0c13.262,0,23.263,9.673,23.263,22.5v11.945c2.159,2.181,7.55,8.21,7.55,14.055C61.625,49.881,60.506,51,59.125,51z M5.51,46h50.598c-1.323-3.533-4.825-7.362-6.232-8.667c-0.51-0.473-0.8-1.137-0.8-1.833v-13c0-10.14-7.681-17.5-18.263-17.5C20.06,5,12.55,12.196,12.55,22.5v13c0,0.696-0.29,1.36-0.8,1.833C10.244,38.734,6.809,42.497,5.51,46z"/>
	<path d="M39.608,50.813c0,4.418-3.938,8-8.796,8c-4.858,0-8.796-3.582-8.796-8H39.608z"/>
</g>
</svg>
