<svg xmlns="http://www.w3.org/2000/svg" xmlns:xlink="http://www.w3.org/1999/xlink" viewBox="0 0 63.139 63.139" xml:space="preserve">
<g style="fill:#005DFF;">
<path d="M31.57,63.139C14.163,63.139,0,48.977,0,31.569S14.163,0,31.57,0,c17.407,0,31.568,14.162,31.568,31.569S48.978,63.139,31.57,63.139z M31.57,5C16.919,5,5,16.919,5,31.569,c0,14.65,11.919,26.569,26.57,26.569c14.649,0,26.568-11.919,26.568-26.569C58.139,16.919,46.22,5,31.57,5z"/>
<polygon points="26.01,45.093 14.538,31.561 18.351,28.328 26.378,37.796 44.96,19.894 48.429,23.495"/>
</g>
</svg>
