<svg xmlns="http://www.w3.org/2000/svg" xmlns:xlink="http://www.w3.org/1999/xlink" viewBox="0 0 109.24 97.985" xml:space="preserve">
	<path style="fill:#005DFF;" d="M85.672,97.985h-4.337c-1.381,0-2.5-1.119-2.5-2.5c0-0.174,0.018-0.343,0.051-0.506,c-1.69-1.769-2.707-4.154-2.707-6.699v-6.633H39.825c-1.381,0-2.5-1.119-2.5-2.5v-38.06c0-1.381,1.119-2.5,2.5-2.5,s2.5,1.119,2.5,2.5v35.56h36.354c1.381,0,2.5,1.119,2.5,2.5v9.133c0,2.075,1.4,3.933,3.406,4.516,c0.165,0.048,0.321,0.111,0.469,0.189h0.618c2.293,0,4.158-1.865,4.158-4.158v-59.6c0-1.706,0.442-3.311,1.219-4.705H58.011,c-1.381,0-2.5-1.119-2.5-2.5s1.119-2.5,2.5-2.5h41.524c1.381,0,2.5,1.119,2.5,2.5s-1.119,2.5-2.5,2.5,c-2.595,0-4.705,2.111-4.705,4.705v59.6C94.83,93.877,90.722,97.985,85.672,97.985z"/>
	<path style="fill:#005DFF;" d="M81.335,97.985H35.951c-7.859,0-14.253-6.395-14.253-14.254v-4.585c0-1.381,1.119-2.5,2.5-2.5,h54.481c1.381,0,2.5,1.119,2.5,2.5v9.134c0,2.075,1.4,3.933,3.406,4.516c1.096,0.318,1.836,1.338,1.801,2.479,c-0.036,1.141-0.839,2.111-1.952,2.361C83.398,97.868,82.356,97.985,81.335,97.985z M26.698,81.646v2.085,c0,5.103,4.151,9.254,9.253,9.254h41.461c-0.789-1.41-1.233-3.022-1.233-4.705v-6.634H26.698z"/>
	<path style="fill:#005DFF;" d="M106.74,40.861H92.33c-1.381,0-2.5-1.119-2.5-2.5v-9.134c0-5.352,4.354-9.705,9.705-9.705,s9.705,4.354,9.705,9.705v9.134C109.24,39.742,108.121,40.861,106.74,40.861z M94.83,35.861h9.41v-6.634,c0-2.594-2.11-4.705-4.705-4.705s-4.705,2.111-4.705,4.705V35.861z"/>
	<path style="fill:#005DFF;" d="M79.805,44.384H58.011c-1.381,0-2.5-1.119-2.5-2.5s1.119-2.5,2.5-2.5h21.794,c1.381,0,2.5,1.119,2.5,2.5S81.186,44.384,79.805,44.384z"/>
	<path style="fill:#005DFF;" d="M79.805,54.097H49.44c-1.381,0-2.5-1.119-2.5-2.5s1.119-2.5,2.5-2.5h30.364,c1.381,0,2.5,1.119,2.5,2.5S81.186,54.097,79.805,54.097z"/>
	<path style="fill:#005DFF;" d="M79.805,63.811H49.44c-1.381,0-2.5-1.119-2.5-2.5s1.119-2.5,2.5-2.5h30.364,c1.381,0,2.5,1.119,2.5,2.5S81.186,63.811,79.805,63.811z"/>
	<path style="fill:#005DFF;" d="M28.912,37.854H13.438C6.028,37.854,0,31.825,0,24.416c0-7.409,6.028-13.437,13.437-13.437h15.474,c1.381,0,2.5,1.119,2.5,2.5v21.875C31.412,36.734,30.292,37.854,28.912,37.854z M13.438,15.979C8.785,15.979,5,19.763,5,24.416,c0,4.653,3.785,8.438,8.437,8.438h12.974V15.979H13.438z"/>
	<path style="fill:#005DFF;" d="M48.501,46.668c-0.349,0-0.698-0.073-1.026-0.22l-19.59-8.815c-1.259-0.566-1.82-2.046-1.254-3.306,c0.567-1.259,2.047-1.82,3.306-1.254l16.064,7.229V8.53l-16.064,7.229c-1.259,0.568-2.739,0.006-3.306-1.254,c-0.566-1.259-0.005-2.739,1.254-3.306l19.59-8.815c0.773-0.348,1.671-0.28,2.383,0.18c0.712,0.461,1.143,1.251,1.143,2.1v39.505,c0,0.848-0.43,1.639-1.143,2.1C49.448,46.533,48.976,46.668,48.501,46.668z"/>
	<path style="fill:#005DFF;" d="M56.725,48.832h-7.181c-1.953,0-3.542-1.589-3.542-3.542V3.542C46.001,1.589,47.59,0,49.543,0h7.181,c1.953,0,3.542,1.589,3.542,3.542V45.29C60.267,47.243,58.678,48.832,56.725,48.832z M51.001,43.832h4.265V5h-4.265V43.832z"/>
	<path style="fill:#005DFF;" d="M24.06,62.438h-8.771c-2.06,0-3.736-1.677-3.736-3.737V36.59c0-2.06,1.676-3.736,3.736-3.736h8.771,c2.06,0,3.736,1.676,3.736,3.736V58.7C27.796,60.761,26.12,62.438,24.06,62.438z M16.553,57.438h6.243V37.854h-6.243V57.438z"/>
</svg>
