<svg xmlns="http://www.w3.org/2000/svg" xmlns:xlink="http://www.w3.org/1999/xlink" viewBox="0 0 177.343 121.219" xml:space="preserve">
<g>
	<path fill="none" stroke="#333333" stroke-width="5" stroke-linecap="round" stroke-linejoin="round" stroke-miterlimit="10" d="M91.836,53.431v18.791l2.128,2.129l17.041-17.042h5.29l3.74,3.741v5.289l-17.042,17.042l2.13,2.128h18.789l13.286-13.286V53.433l34.904-34.904c3.654-3.655,3.654-9.634,0-13.288c-3.654-3.655-9.633-3.655-13.288,0L123.91,40.145h-18.787L91.836,53.431z"/>
	<line fill="none" stroke="#333333" stroke-width="5" stroke-linecap="round" stroke-linejoin="round" stroke-miterlimit="10" x1="162.842" y1="14.501" x2="133.048" y2="44.295"/>
	<path fill="none" stroke="#333333" stroke-width="5" stroke-linecap="round" stroke-linejoin="round" stroke-miterlimit="10" d="M128.681,28.399c-2.607-1.219-5.314-2.155-8.076-2.809l-2.077-11.401h-15.276l-2.078,11.401c-4.291,1.016-8.452,2.714-12.313,5.096l-9.527-6.591L68.531,34.898l6.59,9.527c-2.381,3.861-4.08,8.022-5.096,12.313l-11.401,2.077v15.277l11.401,2.078c1.016,4.291,2.715,8.452,5.096,12.313l-6.59,9.526l10.802,10.803l9.527-6.591c3.86,2.382,8.021,4.08,12.313,5.098l2.078,11.399h15.276l2.077-11.399c4.291-1.018,8.452-2.716,12.313-5.098l9.527,6.591l10.803-10.803l-6.59-9.526c2.381-3.86,4.079-8.021,5.096-12.313l11.4-2.078V58.815l-11.4-2.077c-0.654-2.761-1.591-5.468-2.81-8.076"/>
	<path fill="none" stroke="#333333" stroke-width="5" stroke-linecap="round" stroke-linejoin="round" stroke-miterlimit="10" d="M72.744,41.057c-5.38-0.233-7.738-0.344-7.738-0.344s-24.424,0.632-30.25,2.088c-5.827,1.457-13.402,20.103-13.402,20.103s-8.74,5.244-10.925,9.905c-2.185,4.662-1.02,24.326,0,25.347v11.726c0,0,0,2.239,2.239,2.239h19.793c0,0,1.976,0.038,1.976-1.975v-5.253h40.977"/>
	<path fill="none" stroke="#333333" stroke-width="5" stroke-linecap="round" stroke-linejoin="round" stroke-miterlimit="10" d="M16.805,58.533c0,0,1.53-3.496-1.821-4.807c-3.35-1.311-8.862-2.816-11.58,0c-2.092,2.166-0.511,4.734,4.297,5.972C12.508,60.936,16.15,61.228,16.805,58.533z"/>
	<line fill="none" stroke="#333333" stroke-width="5" stroke-linecap="round" stroke-linejoin="round" stroke-miterlimit="10" x1="17.154" y1="58.589" x2="21.947" y2="59.6"/>
	<path fill="none" stroke="#333333" stroke-width="5" stroke-linecap="round" stroke-linejoin="round" stroke-miterlimit="10" d="M18.352,76.417c0,0,1.613,4.501,5.109,4.501h8.546"/>
	<polyline fill="none" stroke="#333333" stroke-width="5" stroke-linecap="round" stroke-linejoin="round" stroke-miterlimit="10" points="70.412,95.292 46.947,95.292 46.947,84.803 73.103,84.803 	"/>
</g>
</svg>
