<svg xmlns="http://www.w3.org/2000/svg" xmlns:xlink="http://www.w3.org/1999/xlink" viewBox="0 0 120.033 90.612" xml:space="preserve">
<circle style="fill:none;stroke:#005DFF;stroke-width:5;stroke-linecap:round;stroke-linejoin:round;stroke-miterlimit:10;" cx="75.856" cy="25.917" r="23.416"/>
<path style="fill:none;stroke:#005DFF;stroke-width:5;stroke-linecap:round;stroke-linejoin:round;stroke-miterlimit:10;" d="M75.856,58.244c-17.249,0-32.482,7.942-41.676,20.081c11.865,6.172,26.213,9.787,41.676,9.787s29.812-3.615,41.677-9.787,C108.339,66.186,93.105,58.244,75.856,58.244z"/>
<path style="fill:none;stroke:#005DFF;stroke-width:5;stroke-linecap:round;stroke-linejoin:round;stroke-miterlimit:10;" d="M50.47,24.854c0,0-18.744,0.484-23.216,1.603c-4.471,1.118-10.285,15.427-10.285,15.427s-6.707,4.025-8.384,7.602,c-1.678,3.577-0.783,18.67,0,19.452v8.999c0,0,0,1.719,1.718,1.719h15.19c0,0,1.517,0.028,1.517-1.516v-4.031h10.77"/>
<path style="fill:none;stroke:#005DFF;stroke-width:5;stroke-linecap:round;stroke-linejoin:round;stroke-miterlimit:10;" d="M13.479,38.53c0,0,1.174-2.683-1.397-3.688c-2.572-1.007-6.801-2.162-8.888,0c-1.605,1.662-0.391,3.632,3.298,4.583,C10.181,40.375,12.976,40.598,13.479,38.53z"/>
<line style="fill:none;stroke:#005DFF;stroke-width:5;stroke-linecap:round;stroke-linejoin:round;stroke-miterlimit:10;" x1="13.746" y1="38.573" x2="17.424" y2="39.348"/>
<path style="fill:none;stroke:#005DFF;stroke-width:5;stroke-linecap:round;stroke-linejoin:round;stroke-miterlimit:10;" d="M14.666,52.255c0,0,1.238,3.454,3.921,3.454h6.559"/>
<polyline style="fill:none;stroke:#005DFF;stroke-width:5;stroke-linecap:round;stroke-linejoin:round;stroke-miterlimit:10;" points="46,66.74 36.61,66.74 36.61,58.69 67.167,58.69 "/>
<rect style="fill:none;" width="120.033" height="90.612"/>
</svg>
