<svg xmlns="http://www.w3.org/2000/svg" xmlns:xlink="http://www.w3.org/1999/xlink" x="0px" y="0px" width="63px" height="59.128px" viewBox="0 0 63 59.128" style="enable-background:new 0 0 63 59.128;" xml:space="preserve">
<g>
    <circle style="fill:none;stroke:#FFFFFF;stroke-width:4;stroke-linecap:round;stroke-miterlimit:10;" cx="31.5" cy="29.564" r="9.5"/>
	<path style="fill:none;stroke:#FFFFFF;stroke-width:4;stroke-linecap:round;stroke-miterlimit:10;" d="M22.513,56.13l3.454-5.983
		c1.767,0.475,3.616,0.751,5.533,0.751c1.917,0,3.766-0.276,5.533-0.751l3.454,5.983c0.549,0.953,1.779,1.282,2.732,0.731l6.062-3.5
		c0.952-0.55,1.282-1.778,0.732-2.731l-3.445-5.966c2.62-2.615,4.541-5.915,5.522-9.601H59c1.101,0,2-0.899,2-2v-7
		c0-1.1-0.899-2-2-2h-6.909c-0.981-3.684-2.902-6.985-5.522-9.6l3.445-5.966c0.55-0.952,0.22-2.181-0.732-2.732l-6.062-3.5
		c-0.953-0.55-2.184-0.22-2.732,0.732l-3.454,5.983c-1.768-0.474-3.616-0.75-5.533-0.75c-1.917,0-3.766,0.276-5.533,0.75
		l-3.454-5.983c-0.55-0.952-1.78-1.282-2.732-0.732l-6.062,3.5c-0.953,0.551-1.283,1.78-0.732,2.732l3.444,5.966
		c-2.62,2.615-4.541,5.916-5.522,9.6H4c-1.1,0-2,0.9-2,2v7c0,1.101,0.9,2,2,2h6.909c0.981,3.686,2.902,6.985,5.522,9.601
		l-3.444,5.966c-0.551,0.953-0.221,2.182,0.732,2.731l6.062,3.5C20.733,57.413,21.963,57.083,22.513,56.13z"/>
</g>
</svg>
