<svg xmlns="http://www.w3.org/2000/svg" xmlns:xlink="http://www.w3.org/1999/xlink" viewBox="0 0 93.806 93.806" xml:space="preserve">
<path style="fill:#333333;" d="M46.902,93.806C21.04,93.806,0,72.766,0,46.903C0,21.041,21.04,0,46.902,0,s46.903,21.041,46.903,46.902C93.806,72.766,72.765,93.806,46.902,93.806z M46.902,5C23.797,5,5,23.798,5,46.903,s18.797,41.903,41.903,41.903s41.903-18.798,41.903-41.903S70.008,5,46.902,5z"/>
<path style="fill:#333333;" d="M50.426,69.74H43.38c-1.105,0-2-0.896-2-2V40.995c0-1.105,0.895-2,2-2h7.045c1.104,0,2,0.895,2,2,V67.74C52.426,68.845,51.529,69.74,50.426,69.74"/>
<path style="fill:#333333;" d="M50.426,35.111H43.38c-1.105,0-2-0.896-2-2v-7.045c0-1.104,0.895-2,2-2h7.045c1.104,0,2,0.896,2,2,v7.045C52.426,34.215,51.529,35.111,50.426,35.111"/>
</svg>
