<svg xmlns="http://www.w3.org/2000/svg" xmlns:xlink="http://www.w3.org/1999/xlink" viewBox="0 0 365.086 99.438" style="enable-background:new 0 0 365.086 99.438;" xml:space="preserve">
<g style="fill:#fff">
	<path d="M52.218,7.936v75.629v15.873c-9.1,0-16.471-7.105-16.471-15.873V7.936C35.747-0.829,52.218,7.936,52.218,7.936"/>
	<path d="M16.465,0C7.374,0,0,7.108,0,15.873h71.488c9.094,0,16.477-7.108,16.477-15.873H16.465z"/>
	<path d="M223.521,50.483l16.812,39.084c3.441,8.115,13.055,12.004,21.477,8.685l-23.042-53.777L223.521,50.483z"/>
	<path d="M202.064,83.565c0,8.769-7.372,15.873-16.471,15.873V83.565V53.544l16.471,16.286V83.565z"/>
	<path d="M257.118,15.871c-4.394-8.338-12.851-14.351-22.861-15.616c-1.419-0.148-2.856-0.232-4.313-0.246C229.802,0.007,229.658,0,229.515,0h-27.453h-0.003c-9.091,0-16.465,7.108-16.465,15.873v37.671v6.066v10.22l16.471,0.642V59.611v-1.687h27.45c0.161,0,0.319-0.008,0.48-0.01c1.393-0.016,2.768-0.095,4.124-0.231c14.798-1.803,26.244-13.97,26.244-28.722C260.363,24.248,259.19,19.802,257.118,15.871 M232.206,41.899c-0.618,0.083-1.246,0.142-1.89,0.142c-0.108,0-0.214-0.014-0.321-0.017c-0.161,0.003-0.318,0.017-0.48,0.017h-26.003h-1.447V15.883h1.446h26.004c0.151,0,0.301,0.013,0.454,0.015c0.116-0.002,0.23-0.017,0.348-0.017c0.659,0,1.301,0.061,1.934,0.148c6.576,0.907,11.638,6.343,11.638,12.932C243.888,35.565,238.805,41.011,232.206,41.899"/>
	<polygon points="258.646,3.88 258.646,3.877 258.646,3.878"/>
	<polygon points="215.713,3.88 215.714,3.877 215.713,3.878"/>
	<path d="M334.214,61.671h-12.234c-11.441,0-15.102-7.11-15.102-15.875h12.238C330.325,45.796,334.214,52.902,334.214,61.671"/>
	<path d="M365.086,99.139l-0.01-0.048C365.079,99.107,365.083,99.124,365.086,99.139"/>
	<path d="M363.224,99.091c-1.068-5.338-14.516-71.622-14.78-73.063c-2.545-13.79-14.007-24.67-28.782-25.142c-0.166-0.005-0.333-0.009-0.5-0.011c-0.011,0-0.021,0-0.03,0c-0.011,0-0.02,0-0.03,0c-0.167,0.002-0.334,0.006-0.5,0.011c-14.775,0.472-26.237,11.352-28.781,25.142c-0.267,1.441-13.713,67.726-14.782,73.063c-0.002,0.016-0.006,0.032-0.009,0.048c8.749,1.657,17.237-3.835,18.979-12.258c0.003-0.014,0.007-0.025,0.01-0.039l4.938-23.396l-0.002,0.001c3.606-17.695,7.171-35.18,7.23-35.486c1.205-6.136,6.323-10.958,12.917-11.194c0.011,0.001,0.02,0.002,0.03,0.003c0.01-0.001,0.02-0.002,0.03-0.003c6.593,0.236,11.711,5.058,12.917,11.194c0.06,0.306,3.624,17.791,7.231,35.486l-0.004-0.001l4.939,23.396c0.002,0.014,0.007,0.025,0.009,0.039c1.741,8.423,10.231,13.915,18.98,12.258C363.23,99.124,363.228,99.107,363.224,99.091"/>
	<path d="M129.853,99.139l-0.01-0.048C129.847,99.107,129.85,99.124,129.853,99.139"/>
	<path d="M143.366,61.671H131.13c-11.441,0-15.101-7.11-15.101-15.875h12.238C139.478,45.796,143.366,52.902,143.366,61.671"/>
	<path d="M172.376,99.091c-1.07-5.338-14.516-71.622-14.782-73.063c-2.543-13.79-14.005-24.67-28.781-25.142c-0.166-0.005-0.333-0.009-0.5-0.011c-0.01,0-0.02,0-0.03,0c-0.011,0-0.02,0-0.031,0c-0.167,0.002-0.334,0.006-0.5,0.011c-14.776,0.472-26.238,11.352-28.781,25.142c-0.266,1.441-13.712,67.726-14.782,73.063c-0.003,0.016-0.006,0.032-0.009,0.048c8.749,1.657,17.238-3.835,18.979-12.258c0.003-0.014,0.007-0.025,0.01-0.039l4.938-23.396l-0.003,0.001c3.607-17.695,7.172-35.18,7.232-35.486c1.205-6.136,6.323-10.958,12.916-11.194c0.011,0.001,0.02,0.002,0.031,0.003c0.01-0.001,0.019-0.002,0.03-0.003c6.593,0.236,11.711,5.058,12.916,11.194c0.06,0.306,3.625,17.791,7.232,35.486l-0.003-0.001l4.939,23.396c0.002,0.014,0.006,0.025,0.009,0.039c1.741,8.423,10.231,13.915,18.979,12.258C172.382,99.124,172.379,99.107,172.376,99.091"/>
</g>
</svg>
