<svg xmlns="http://www.w3.org/2000/svg" xmlns:xlink="http://www.w3.org/1999/xlink" viewBox="0 0 63.503 111.42" xml:space="preserve">
<path style="fill:#005DFF;" d="M54.502,15.295h-16c-2.481,0-4.5-2.019-4.5-4.5V4.499c0-2.481,2.019-4.5,4.5-4.5h16,c2.481,0,4.5,2.019,4.5,4.5v6.296C59.002,13.276,56.983,15.295,54.502,15.295z M38.502,3.999c-0.271,0-0.5,0.229-0.5,0.5v6.296,c0,0.271,0.229,0.5,0.5,0.5h16c0.271,0,0.5-0.229,0.5-0.5V4.499c0-0.271-0.229-0.5-0.5-0.5H38.502z"/>
<path style="fill:#005DFF;" d="M48.127,111.42h-32.75c-8.478,0-15.375-6.897-15.375-15.375V43.58,c-0.026-0.874,0.017-8.421,8.761-13.398c7.07-4.024,22.997-9.195,27.864-10.732v-8.154h18.75v8.944,c2.744,3.585,8.125,10.99,8.125,13.931v61.875C63.502,104.522,56.604,111.42,48.127,111.42z M40.627,15.295v7.103l-1.413,0.434,c-0.205,0.063-20.632,6.364-28.472,10.827C3.771,37.626,3.997,43.38,4,43.438l0.003,0.107v52.5c0,6.272,5.103,11.375,11.375,11.375,h32.75c6.272,0,11.375-5.103,11.375-11.375V34.17c-0.146-1.412-4.103-7.369-7.707-12.026l-0.418-0.541v-6.309H40.627z"/>
<rect x="2.002" y="41.545" style="fill:#005DFF;" width="59.5" height="4"/>
<rect x="2.002" y="99.17" style="fill:#005DFF;" width="59.5" height="4"/>
<path style="fill:#005DFF;" d="M54.876,94.826H8.626V49.888h46.25V94.826z M12.626,90.826h38.25V53.888h-38.25V90.826z"/>
<path style="fill:#005DFF;" d="M31.752,85.148c-5.002,0-9.072-3.879-9.072-8.646c0-4.39,4.541-12.674,7.545-16.227l1.527-1.807,l1.527,1.807c3.003,3.553,7.543,11.837,7.543,16.227C40.822,81.27,36.753,85.148,31.752,85.148z M31.752,64.921,c-2.463,3.688-5.072,9.193-5.072,11.581c0,2.563,2.275,4.646,5.072,4.646c2.796,0,5.07-2.084,5.07-4.646,C36.822,74.114,34.214,68.609,31.752,64.921z"/>
</svg>
