<svg xmlns="http://www.w3.org/2000/svg" xmlns:xlink="http://www.w3.org/1999/xlink" viewBox="0 0 66.667 109.583" xml:space="preserve">
<path style="fill:#005DFF;" d="M59.791,18.5H6.875c-2.021,0-3.666-1.645-3.666-3.667v-3.916c0-2.022,1.645-3.667,3.666-3.667,h52.917c2.022,0,3.668,1.645,3.668,3.667v3.916C63.459,16.855,61.813,18.5,59.791,18.5z M7.208,14.5h52.25v-3.25H7.208V14.5z"/>
<path style="fill:#005DFF;" d="M43.834,11.25h-21c-2.022,0-3.667-1.645-3.667-3.667V3.667C19.167,1.645,20.812,0,22.833,0h21,c2.022,0,3.667,1.645,3.667,3.667v3.916C47.501,9.605,45.856,11.25,43.834,11.25z M23.167,7.25h20.334V4H23.167V7.25z"/>
<path style="fill:#005DFF;" d="M60.084,56.583h-53.5V14.5h53.5V56.583z M10.584,52.583h45.5V18.5h-45.5V52.583z"/>
<path style="fill:#005DFF;" d="M63.5,76.916H3.167V52.583H63.5V76.916z M7.167,72.916H59.5V56.583H7.167V72.916z"/>
<path style="fill:#005DFF;" d="M57.098,102.416H9.569L0,90.976v-18.06h66.667v18.06L57.098,102.416z M11.438,98.416h43.79,l7.438-8.894V76.916H4v12.606L11.438,98.416z"/>
<path style="fill:#005DFF;" d="M53.084,109.583h-39.5V98.416h39.5V109.583z M17.584,105.583h31.5v-3.167h-31.5V105.583z"/>
<rect x="5.208" y="59.36" style="fill:#005DFF;" width="49.597" height="4"/>
<rect x="11.903" y="66.139" style="fill:#005DFF;" width="49.597" height="4"/>
<rect x="8.056" y="81.416" style="fill:#005DFF;" width="56.611" height="4"/>
<rect x="3.394" y="89.916" style="fill:#005DFF;" width="54.918" height="4"/>
<rect x="13.655" y="16.5" style="fill:#005DFF;" width="4" height="32.625"/>
<rect x="27.797" y="16.5" style="fill:#005DFF;" width="4" height="32.625"/>
<rect x="41.94" y="16.5" style="fill:#005DFF;" width="4" height="32.625"/>
<rect x="20.726" y="21.958" style="fill:#005DFF;" width="4" height="32.625"/>
<rect x="34.869" y="21.958" style="fill:#005DFF;" width="4" height="32.625"/>
<rect x="49.012" y="21.958" style="fill:#005DFF;" width="4" height="32.625"/>
<rect style="fill:none;" width="66.667" height="109.583"/>
</svg>
