<svg xmlns="http://www.w3.org/2000/svg" xmlns:xlink="http://www.w3.org/1999/xlink" viewBox="0 0 113.1 112.577" xml:space="preserve">
<path style="fill:#005DFF;" d="M41.349,112.577c-0.95,0-1.792-0.569-2.145-1.449l-1.413-3.513,c-3.188,0.513-6.448,0.479-9.615-0.094l-1.484,3.482c-0.492,1.142-1.886,1.7-3.025,1.22l-7.486-3.19,c-1.168-0.504-1.713-1.858-1.222-3.022l1.487-3.489c-2.601-1.886-4.889-4.223-6.727-6.87l-3.516,1.415,c-0.272,0.11-0.563,0.167-0.861,0.167c-0.949,0-1.791-0.569-2.143-1.449L0.167,88.24c-0.47-1.174,0.098-2.517,1.266-2.997,l3.53-1.42c-0.508-3.182-0.476-6.451,0.094-9.613l-3.483-1.485c-0.559-0.235-1-0.682-1.233-1.255,c-0.232-0.572-0.228-1.201,0.014-1.771l3.19-7.485c0.479-1.137,1.888-1.707,3.032-1.216l3.479,1.482,c1.886-2.602,4.222-4.89,6.87-6.727l-1.415-3.516c-0.473-1.177,0.098-2.522,1.273-3l7.553-3.039,c1.163-0.463,2.532,0.125,2.999,1.271l1.418,3.524c3.188-0.51,6.448-0.478,9.614,0.095l1.484-3.483,c0.494-1.143,1.884-1.701,3.021-1.222l7.49,3.192c1.174,0.508,1.716,1.866,1.216,3.032l-1.482,3.479,c2.602,1.887,4.889,4.223,6.727,6.87l3.515-1.415c0.274-0.11,0.564-0.167,0.861-0.167c0.946,0,1.787,0.567,2.142,1.444l3.037,7.549,c0.468,1.176-0.101,2.517-1.264,2.996l-3.532,1.421c0.507,3.182,0.475,6.451-0.095,9.614l3.483,1.484,c0.558,0.236,1.01,0.698,1.237,1.267c0.229,0.575,0.221,1.205-0.025,1.772L63,96.396c-0.484,1.138-1.886,1.702-3.026,1.219,l-3.484-1.485c-1.886,2.602-4.222,4.89-6.87,6.727l1.414,3.517c0.475,1.167-0.091,2.515-1.265,2.997l-7.561,3.042,C41.93,112.522,41.643,112.577,41.349,112.577z M40.255,103.022l2.03,5.046l4.406-1.772l-2.029-5.046l1.449-0.882,c3.205-1.95,5.958-4.646,7.962-7.797l0.911-1.432l4.999,2.131l1.862-4.37l-4.998-2.13l0.401-1.648,c0.884-3.629,0.922-7.483,0.11-11.146l-0.367-1.655l5.044-2.029l-1.772-4.406l-5.046,2.031l-0.881-1.45,c-1.948-3.205-4.644-5.958-7.796-7.963l-1.432-0.91l2.13-5.001l-4.37-1.862l-2.131,5.001l-1.649-0.402,c-3.637-0.887-7.474-0.925-11.143-0.11l-1.656,0.367l-2.03-5.045l-4.407,1.773l2.029,5.045l-1.449,0.882,c-3.205,1.949-5.958,4.646-7.962,7.797l-0.911,1.432l-5-2.131l-1.862,4.37l5,2.132l-0.402,1.648,c-0.885,3.628-0.923,7.48-0.11,11.143l0.368,1.656l-5.045,2.029l1.773,4.406l5.045-2.029l0.881,1.448,c1.95,3.206,4.646,5.959,7.797,7.963l1.432,0.91l-2.131,5.001l4.37,1.862l2.131-5l1.649,0.401c3.638,0.888,7.475,0.925,11.144,0.11,L40.255,103.022z M33.269,89.807c-1.417,0-2.801-0.283-4.113-0.843c-5.326-2.27-7.812-8.449-5.542-13.775,c1.653-3.879,5.446-6.386,9.663-6.386c1.417,0,2.801,0.283,4.113,0.843c2.58,1.099,4.578,3.138,5.625,5.74,c1.047,2.602,1.018,5.456-0.082,8.036C41.278,87.301,37.485,89.807,33.269,89.807z M33.276,72.803c-2.611,0-4.96,1.552-5.983,3.954,c-1.405,3.297,0.134,7.122,3.431,8.527c0.814,0.347,1.67,0.522,2.545,0.522c2.611,0,4.959-1.552,5.983-3.953,c0.681-1.597,0.698-3.364,0.05-4.975c-0.648-1.611-1.884-2.873-3.481-3.554C35.007,72.979,34.151,72.803,33.276,72.803z"/>
<path style="fill:#005DFF;" d="M91.948,42.304c-11.663,0-21.151-9.489-21.151-21.152S80.285,0,91.948,0s21.152,9.489,21.152,21.152,S103.611,42.304,91.948,42.304z M91.948,4c-9.457,0-17.151,7.694-17.151,17.152s7.694,17.152,17.151,17.152,c9.458,0,17.152-7.694,17.152-17.152S101.406,4,91.948,4z M93.515,35.489h-3.132c-1.168,0-2.118-0.951-2.118-2.119v-0.518,c-0.683-0.215-1.348-0.491-1.984-0.822l-0.953,0.953l-0.912,0.034c-0.559,0-1.085-0.215-1.483-0.604l-2.82-2.821l-0.028-0.923,c0.005-0.567,0.23-1.099,0.636-1.496l0.352-0.352c-0.331-0.636-0.607-1.301-0.823-1.984h-0.518c-1.168,0-2.118-0.951-2.118-2.119,v-3.13c0-1.168,0.95-2.119,2.118-2.119h0.518c0.216-0.683,0.492-1.348,0.823-1.984l-0.945-0.946l-0.042-0.902,c-0.005-0.568,0.214-1.104,0.613-1.508l2.806-2.807l0.913-0.034c0.566,0,1.099,0.22,1.498,0.62l0.367,0.367,c0.637-0.331,1.302-0.607,1.984-0.822V8.934c0-1.168,0.95-2.119,2.118-2.119h3.132c1.168,0,2.118,0.951,2.118,2.119v0.518,c0.683,0.215,1.348,0.491,1.983,0.822l0.953-0.953l0.912-0.034c0.565,0,1.098,0.22,1.497,0.62l2.807,2.806l0.028,0.923,c-0.005,0.567-0.23,1.099-0.636,1.496l-0.352,0.352c0.331,0.636,0.606,1.301,0.822,1.984h0.518c1.169,0,2.119,0.951,2.119,2.119,v3.13c0,1.168-0.95,2.119-2.119,2.119h-0.518c-0.216,0.683-0.491,1.348-0.822,1.984l0.945,0.946l0.042,0.902,c0.005,0.568-0.214,1.104-0.613,1.508l-2.808,2.807l-0.911,0.034c-0.559,0-1.085-0.215-1.483-0.604l-0.382-0.382,c-0.636,0.331-1.301,0.607-1.983,0.822v0.518C95.633,34.538,94.683,35.489,93.515,35.489z M86.028,27.08l1.114,0.797,c1.036,0.742,2.196,1.223,3.447,1.429l1.358,0.224l1.359-0.224c1.25-0.207,2.41-0.688,3.446-1.429l1.118-0.8l0.802-1.12,c0.741-1.036,1.223-2.195,1.429-3.447l0.225-1.358l-0.225-1.358c-0.206-1.252-0.688-2.412-1.429-3.447l-0.802-1.12l-1.118-0.8,c-1.036-0.742-2.196-1.223-3.446-1.429l-1.359-0.224l-1.358,0.224c-1.251,0.207-2.411,0.688-3.447,1.429l-1.114,0.797l-0.806,1.124,c-0.742,1.036-1.224,2.195-1.429,3.445l-0.224,1.36l0.224,1.36c0.205,1.25,0.687,2.409,1.429,3.445L86.028,27.08z M91.948,26.424,c-2.906,0-5.271-2.365-5.271-5.272s2.365-5.272,5.271-5.272c2.907,0,5.272,2.365,5.272,5.272S94.855,26.424,91.948,26.424z,M91.948,19.88c-0.701,0-1.271,0.571-1.271,1.272s0.57,1.272,1.271,1.272s1.272-0.571,1.272-1.272S92.649,19.88,91.948,19.88z"/>
<path style="fill:#005DFF;" d="M33.272,65.602c-2.094,0-3.798-1.704-3.798-3.798s1.704-3.798,3.798-3.798,c2.095,0,3.799,1.704,3.799,3.798S35.367,65.602,33.272,65.602z M33.272,60.006c-0.991,0-1.798,0.807-1.798,1.798,s0.807,1.798,1.798,1.798c0.992,0,1.799-0.807,1.799-1.798S34.264,60.006,33.272,60.006z"/>
<path style="fill:#005DFF;" d="M20.897,70.729c-1.015,0-1.969-0.395-2.686-1.112c-0.718-0.718-1.113-1.672-1.113-2.687,s0.395-1.969,1.113-2.686c1.433-1.436,3.937-1.436,5.372,0c1.48,1.48,1.48,3.891,0,5.372,C22.866,70.334,21.912,70.729,20.897,70.729z M20.897,65.131c-0.48,0-0.932,0.188-1.271,0.527c-0.34,0.34-0.527,0.791-0.527,1.271,s0.187,0.933,0.527,1.272c0.68,0.68,1.864,0.68,2.544,0c0.701-0.701,0.701-1.843,0-2.544,C21.829,65.318,21.377,65.131,20.897,65.131z"/>
<path style="fill:#005DFF;" d="M15.771,83.104c-2.094,0-3.798-1.704-3.798-3.799c0-2.094,1.704-3.798,3.798-3.798,c2.095,0,3.799,1.704,3.799,3.798C19.57,81.399,17.866,83.104,15.771,83.104z M15.771,77.507c-0.992,0-1.798,0.807-1.798,1.798,c0,0.992,0.807,1.799,1.798,1.799s1.799-0.807,1.799-1.799C17.57,78.313,16.763,77.507,15.771,77.507z"/>
<path style="fill:#005DFF;" d="M20.897,95.479c-1.014,0-1.968-0.396-2.686-1.111c-0.718-0.719-1.113-1.672-1.113-2.687,c0-1.016,0.395-1.969,1.112-2.687c1.436-1.437,3.938-1.437,5.372,0c1.48,1.481,1.48,3.891,0,5.372,C22.866,95.083,21.912,95.479,20.897,95.479z M20.897,89.882c-0.48,0-0.932,0.187-1.272,0.526c-0.339,0.34-0.526,0.791-0.526,1.272,c0,0.48,0.187,0.932,0.526,1.271c0.68,0.679,1.866,0.678,2.544,0c0.701-0.701,0.701-1.843,0-2.544,C21.83,90.068,21.378,89.882,20.897,89.882z"/>
<path style="fill:#005DFF;" d="M33.272,100.604c-2.094,0-3.798-1.704-3.798-3.798s1.704-3.798,3.798-3.798,c2.095,0,3.799,1.704,3.799,3.798S35.367,100.604,33.272,100.604z M33.272,95.008c-0.991,0-1.798,0.807-1.798,1.798,s0.807,1.798,1.798,1.798c0.992,0,1.799-0.807,1.799-1.798S34.264,95.008,33.272,95.008z"/>
<path style="fill:#005DFF;" d="M45.647,95.479c-1.014,0-1.968-0.395-2.686-1.112c-1.481-1.481-1.481-3.892,0-5.372,c1.433-1.437,3.937-1.437,5.372,0c1.479,1.48,1.479,3.891,0,5.372C47.616,95.084,46.662,95.479,45.647,95.479z M45.647,89.881,c-0.48,0-0.932,0.188-1.271,0.527c-0.702,0.701-0.702,1.843,0,2.544c0.68,0.68,1.864,0.679,2.543,0c0.7-0.701,0.701-1.843,0-2.544,C46.58,90.068,46.128,89.881,45.647,89.881z"/>
<path style="fill:#005DFF;" d="M50.773,83.104c-2.094,0-3.798-1.704-3.798-3.799s1.704-3.799,3.798-3.799,c2.095,0,3.799,1.704,3.799,3.799S52.868,83.104,50.773,83.104z M50.773,77.506c-0.992,0-1.798,0.807-1.798,1.799,s0.807,1.799,1.798,1.799s1.799-0.807,1.799-1.799S51.765,77.506,50.773,77.506z"/>
<path style="fill:#005DFF;" d="M45.647,70.728c-1.015,0-1.969-0.395-2.686-1.112c-1.48-1.481-1.48-3.891,0-5.372,c1.436-1.434,3.937-1.433,5.372-0.001c0.718,0.719,1.113,1.672,1.113,2.687c0,1.016-0.396,1.969-1.113,2.687,C47.616,70.333,46.662,70.728,45.647,70.728z M45.647,65.131c-0.481,0-0.933,0.188-1.272,0.526c-0.701,0.701-0.701,1.843,0,2.544,c0.68,0.68,1.864,0.68,2.544,0c0.339-0.34,0.527-0.791,0.527-1.272c0-0.48-0.188-0.932-0.527-1.271,C46.58,65.318,46.128,65.131,45.647,65.131z"/>
<rect x="50.983" y="-6.056" transform="matrix(0.636 0.7717 -0.7717 0.636 41.2408 -30.532)" style="fill:#005DFF;" width="4" height="69.008"/>
<rect x="82.775" y="23.387" transform="matrix(0.7651 0.644 -0.644 0.7651 58.0635 -40.6753)" style="fill:#005DFF;" width="4" height="71.696"/>
</svg>
