<svg xmlns="http://www.w3.org/2000/svg" xmlns:xlink="http://www.w3.org/1999/xlink" viewBox="0 0 126.604 126.608" xml:space="preserve">
<path style="fill:#005DFF;" d="M125.506,1.093c-0.795-0.926-2.048-1.136-3.21-1.075C84.419,0.043,46.536,0.031,8.656,0.025,C6.651,0.067,4.629-0.118,2.637,0.141C1.074,0.558-0.117,2.062,0.009,3.699c0,39.734-0.007,79.477,0,119.219,c-0.136,2.011,1.721,3.749,3.697,3.644c39.529,0.025,79.061,0.007,118.583,0.007c2.155,0.333,4.348-1.444,4.273-3.656,c0.038-38.689-0.018-77.383,0.024-116.084C126.487,4.907,127.032,2.611,125.506,1.093"/>
<path style="fill:#FFFFFF;" d="M103.241,98.603c-0.325,0-0.647-0.105-0.915-0.312l-11.359-8.743H29.863c-4.411,0-8-3.589-8-8,V36.004c0-4.411,3.589-8,8-8h66.878c4.411,0,8,3.589,8,8v61.099c0,0.571-0.325,1.094-0.838,1.346,C103.693,98.552,103.467,98.603,103.241,98.603z M29.863,31.004c-2.757,0-5,2.243-5,5v45.544c0,2.757,2.243,5,5,5h61.615,c0.331,0,0.652,0.109,0.915,0.312l9.349,7.195V36.004c0-2.757-2.243-5-5-5H29.863z"/>
<path style="fill:#FFFFFF;" d="M59.513,68.284c0-2.383,0.289-4.282,0.867-5.695c0.578-1.413,1.638-2.805,3.177-4.176,c1.54-1.37,2.564-2.486,3.075-3.345c0.51-0.861,0.766-1.769,0.766-2.723c0-2.879-1.326-4.319-3.98-4.319,c-1.259,0-2.267,0.387-3.023,1.164c-0.758,0.775-1.153,1.845-1.187,3.209h-7.399c0.033-3.252,1.084-5.797,3.15-7.636,c2.068-1.839,4.887-2.759,8.459-2.759c3.606,0,6.405,0.873,8.395,2.618c1.989,1.745,2.984,4.21,2.984,7.394,c0,1.447-0.323,2.814-0.968,4.099c-0.648,1.286-1.779,2.711-3.395,4.278l-2.066,1.966c-1.293,1.244-2.033,2.699-2.22,4.368,l-0.103,1.557H59.513z M66.019,75.582h-6.505v-5.375h6.505V75.582z"/>
</svg>
