<svg xmlns="http://www.w3.org/2000/svg" xmlns:xlink="http://www.w3.org/1999/xlink" viewBox="0 0 126.604 126.608" xml:space="preserve">
<path style="fill:#005DFF;" d="M125.506,1.092c-0.794-0.926-2.048-1.136-3.21-1.075C84.419,0.043,46.536,0.03,8.656,0.024,C6.652,0.066,4.63-0.119,2.638,0.141C1.074,0.558-0.117,2.062,0.009,3.699c0,39.735-0.007,79.476,0,119.219,c-0.136,2.01,1.721,3.75,3.697,3.644c39.529,0.025,79.06,0.008,118.583,0.008c2.155,0.332,4.347-1.444,4.272-3.657,c0.039-38.69-0.016-77.383,0.026-116.084C126.488,4.907,127.033,2.611,125.506,1.092"/>
<path style="fill:#FFFFFF;" d="M60.629,98.405h-28.67c-5.289,0-9.592-4.304-9.592-9.593V40.257c0-5.289,4.303-9.591,9.592-9.591,h60.693c5.289,0,9.593,4.303,9.593,9.591V56.48c0,0.829-0.672,1.5-1.5,1.5s-1.5-0.671-1.5-1.5V40.257,c0-3.634-2.957-6.591-6.593-6.591H31.959c-3.635,0-6.592,2.957-6.592,6.591v48.555c0,3.636,2.957,6.593,6.592,6.593h28.67,c0.829,0,1.5,0.672,1.5,1.5S61.458,98.405,60.629,98.405z"/>
<path style="fill:#FFFFFF;" d="M37.663,37.88c-0.829,0-1.5-0.671-1.5-1.5v-9.104c0-0.829,0.671-1.5,1.5-1.5s1.5,0.671,1.5,1.5,v9.104C39.163,37.208,38.492,37.88,37.663,37.88z"/>
<path style="fill:#FFFFFF;" d="M54.092,37.88c-0.829,0-1.5-0.671-1.5-1.5v-9.104c0-0.829,0.671-1.5,1.5-1.5s1.5,0.671,1.5,1.5,v9.104C55.592,37.208,54.92,37.88,54.092,37.88z"/>
<path style="fill:#FFFFFF;" d="M70.521,37.88c-0.828,0-1.5-0.671-1.5-1.5v-9.104c0-0.829,0.672-1.5,1.5-1.5s1.5,0.671,1.5,1.5,v9.104C72.021,37.208,71.349,37.88,70.521,37.88z"/>
<path style="fill:#FFFFFF;" d="M86.948,37.88c-0.828,0-1.5-0.671-1.5-1.5v-9.104c0-0.829,0.672-1.5,1.5-1.5s1.5,0.671,1.5,1.5,v9.104C88.448,37.208,87.776,37.88,86.948,37.88z"/>
<path style="fill:#FFFFFF;" d="M79.142,100.832c-13.838,0-25.096-11.259-25.096-25.097s11.258-25.096,25.096-25.096,s25.096,11.258,25.096,25.096S92.979,100.832,79.142,100.832z M79.142,53.639c-12.184,0-22.096,9.912-22.096,22.096,c0,12.185,9.913,22.097,22.096,22.097s22.096-9.912,22.096-22.097C101.237,63.551,91.325,53.639,79.142,53.639z"/>
<path style="fill:#FFFFFF;" d="M74.778,85.25c-0.025,0-0.051-0.001-0.075-0.002c-0.414-0.021-0.801-0.212-1.069-0.528l-7.914-9.335,c-0.535-0.632-0.457-1.578,0.175-2.114c0.631-0.534,1.579-0.458,2.114,0.175l6.88,8.115l15.489-14.922,c0.597-0.574,1.548-0.558,2.121,0.039c0.575,0.597,0.558,1.547-0.039,2.121L75.819,84.831C75.539,85.101,75.165,85.25,74.778,85.25,z"/>
</svg>
