<?xml version="1.0" encoding="iso-8859-1"?>
<!-- Generator: Adobe Illustrator 16.0.0, SVG Export Plug-In . SVG Version: 6.00 Build 0)  -->
<!DOCTYPE svg PUBLIC "-//W3C//DTD SVG 1.1//EN" "http://www.w3.org/Graphics/SVG/1.1/DTD/svg11.dtd">
<svg version="1.1" id="&#xB808;&#xC774;&#xC5B4;_1" xmlns="http://www.w3.org/2000/svg" xmlns:xlink="http://www.w3.org/1999/xlink"
	 x="0px" y="0px" width="126.604px" height="126.608px" viewBox="0 0 126.604 126.608"
	 style="enable-background:new 0 0 126.604 126.608;" xml:space="preserve">
<g>
	<path style="fill:none;stroke:#FFFFFF;stroke-width:3;stroke-linecap:round;stroke-linejoin:round;stroke-miterlimit:10;" d="
		M103.241,97.103V36.004c0-3.575-2.925-6.5-6.5-6.5H29.863c-3.575,0-6.5,2.925-6.5,6.5v45.544c0,3.575,2.925,6.5,6.5,6.5h61.615
		L103.241,97.103z"/>
	<path style="fill:#FFFFFF;" d="M59.513,68.284c0-2.383,0.289-4.282,0.867-5.695s1.638-2.805,3.177-4.176
		c1.54-1.37,2.564-2.486,3.075-3.345c0.51-0.861,0.766-1.769,0.766-2.723c0-2.879-1.326-4.319-3.98-4.319
		c-1.259,0-2.267,0.387-3.023,1.164c-0.758,0.775-1.153,1.845-1.187,3.209h-7.399c0.033-3.252,1.084-5.797,3.15-7.636
		c2.068-1.839,4.887-2.759,8.459-2.759c3.606,0,6.405,0.873,8.395,2.618c1.989,1.745,2.984,4.21,2.984,7.394
		c0,1.447-0.323,2.814-0.968,4.099c-0.648,1.286-1.779,2.711-3.395,4.278l-2.066,1.966c-1.293,1.244-2.033,2.699-2.22,4.368
		l-0.103,1.557H59.513z M66.019,75.582h-6.505v-5.375h6.505V75.582z"/>
</g>
</svg>
