<svg xmlns="http://www.w3.org/2000/svg" xmlns:xlink="http://www.w3.org/1999/xlink" viewBox="0 0 80.833 101.458" xml:space="preserve">
<path style="fill:#005DFF;" d="M65.084,101.458H15.75c-4.825,0-8.75-3.925-8.75-8.75V16.291c0-1.381,1.119-2.5,2.5-2.5h61.833,c1.381,0,2.5,1.119,2.5,2.5v76.417C73.834,97.533,69.909,101.458,65.084,101.458z M12,18.791v73.917c0,2.067,1.682,3.75,3.75,3.75,h49.333c2.067,0,3.75-1.683,3.75-3.75V18.791H12z"/>
<path style="fill:#005DFF;" d="M78.333,18.791H2.5c-1.381,0-2.5-1.119-2.5-2.5s1.119-2.5,2.5-2.5h75.833c1.381,0,2.5,1.119,2.5,2.5,S79.714,18.791,78.333,18.791z"/>
<path style="fill:#005DFF;" d="M57.156,17.562c-0.004,0-0.007,0-0.011,0c-1.381-0.006-2.495-1.13-2.489-2.511l0.021-4.812,c0-2.884-2.355-5.24-5.25-5.24h-18c-2.895,0-5.25,2.355-5.25,5.251l-0.021,4.823c-0.006,1.377-1.125,2.489-2.5,2.489,c-0.003,0-0.007,0-0.011,0c-1.381-0.006-2.495-1.13-2.489-2.511l0.021-4.812c0-5.642,4.598-10.24,10.25-10.24h18,c5.652,0,10.25,4.599,10.25,10.251l-0.021,4.823C59.65,16.45,58.532,17.562,57.156,17.562z"/>
<path style="fill:#005DFF;" d="M26.01,82.791c-1.381,0-2.5-1.119-2.5-2.5V32.958c0-1.381,1.119-2.5,2.5-2.5s2.5,1.119,2.5,2.5,v47.333C28.51,81.672,27.391,82.791,26.01,82.791z"/>
<path style="fill:#005DFF;" d="M40.416,82.791c-1.381,0-2.5-1.119-2.5-2.5V32.958c0-1.381,1.119-2.5,2.5-2.5s2.5,1.119,2.5,2.5,v47.333C42.916,81.672,41.797,82.791,40.416,82.791z"/>
<path style="fill:#005DFF;" d="M54.823,82.791c-1.381,0-2.5-1.119-2.5-2.5V32.958c0-1.381,1.119-2.5,2.5-2.5s2.5,1.119,2.5,2.5,v47.333C57.323,81.672,56.204,82.791,54.823,82.791z"/>
</svg>
