<svg xmlns="http://www.w3.org/2000/svg" xmlns:xlink="http://www.w3.org/1999/xlink" viewBox="0 0 126.823 126.827" xml:space="preserve">
<rect x="16.468" y="16.469" style="fill:#FFFFFF;" width="93.888" height="93.888"/>
<path style="fill:#49B649;" d="M2.642,0.141C4.638-0.117,6.663,0.067,8.67,0.025c37.946,0.006,75.894,0.019,113.836-0.007,c1.164-0.06,2.42,0.15,3.216,1.078c1.529,1.52,0.984,3.821,1.083,5.745c-0.042,38.766,0.013,77.526-0.025,116.284,c0.074,2.216-2.122,3.995-4.28,3.662c-39.592,0-79.189,0.019-118.788-0.007c-1.979,0.107-3.84-1.637-3.704-3.649,c-0.007-39.812,0-79.622,0-119.425C-0.117,2.066,1.077,0.559,2.642,0.141 M28.644,31.659c0.049,21.152,0.016,42.309,0.016,63.461,c7.922,0.046,15.854,0.033,23.773,0.007c0.12-10.487-0.145-20.984,0.14-31.473c2.6,3.631,4.971,7.422,7.625,11.015,c4.434,6.888,9.455,13.396,13.718,20.391c7.978,0.21,15.954-0.006,23.935,0.122c0.084-0.993,0.171-1.982,0.171-2.979,c-0.116-20.189,0.095-40.381-0.109-60.566c-7.893-0.063-15.776,0.015-23.663-0.033c-0.062,10.545,0.062,21.098-0.068,31.634,c-7.329-10.427-14.256-21.163-21.757-31.46C44.518,31.42,36.566,31.672,28.644,31.659"/>
<rect style="fill:none;" width="126.823" height="126.827"/>
</svg>
