<svg xmlns="http://www.w3.org/2000/svg" xmlns:xlink="http://www.w3.org/1999/xlink" viewBox="0 0 126.604 126.608" xml:space="preserve">
<path style="fill:#FFF100;" d="M125.506,1.092c-0.795-0.926-2.048-1.136-3.21-1.075C84.419,0.043,46.536,0.03,8.656,0.024,C6.651,0.066,4.629-0.118,2.637,0.14C1.074,0.557-0.117,2.062,0.009,3.698c0,39.735-0.007,79.477,0,119.22,c-0.136,2.009,1.721,3.749,3.697,3.643c39.529,0.025,79.061,0.007,118.583,0.007c2.155,0.332,4.348-1.443,4.273-3.655,c0.038-38.691-0.018-77.384,0.024-116.084C126.487,4.907,127.032,2.611,125.506,1.092"/>
<path style="fill:#391F1F;" d="M64.607,16.255c-29.213,0-52.879,18.693-52.879,41.763c0,14.838,9.809,27.845,24.537,35.267,l-4.987,18.608c-0.187,0.582-0.043,1.189,0.38,1.604c0.289,0.273,0.668,0.428,1.07,0.428c0.331,0,0.636-0.138,0.933-0.358,l21.428-14.468c3.109,0.443,6.28,0.694,9.519,0.694c29.199,0,52.896-18.68,52.896-41.775,C117.503,34.948,93.807,16.255,64.607,16.255"/>
<path style="fill:#FFF100;" d="M30.282,51.404h-5.76c-0.795,0-1.478-0.196-2.045-0.54c-0.574-0.354-0.911-0.881-1.049-1.556,c-0.036-0.174-0.063-0.379-0.084-0.585c0-0.832,0.304-1.506,0.905-1.957c0.601-0.463,1.346-0.714,2.259-0.714h17.609,c0.794,0,1.464,0.19,2.029,0.54c0.574,0.367,0.927,0.887,1.065,1.556c0.036,0.187,0.055,0.38,0.049,0.575,c0,0.869-0.299,1.505-0.884,1.981c-0.588,0.456-1.333,0.7-2.253,0.7h-5.747l-0.021,19.83c0,0.951-0.269,1.72-0.838,2.292,c-0.537,0.582-1.297,0.871-2.222,0.871c-0.774,0-1.423-0.219-1.949-0.634c-0.539-0.414-0.877-0.989-1.022-1.713,c-0.055-0.257-0.062-0.54-0.055-0.816L30.282,51.404z"/>
<path style="fill:#FFF100;" d="M46.723,47.499c0.256-0.698,0.622-1.196,1.113-1.491c0.49-0.292,1.106-0.45,1.872-0.45h1.457,c0.795,0,1.458,0.163,1.997,0.485c0.538,0.315,0.953,0.932,1.258,1.848l7.348,21.299c0.237,0.655,0.395,1.234,0.492,1.697,c0.062,0.305,0.096,0.553,0.111,0.732c-0.015,0.774-0.291,1.434-0.857,1.972c-0.559,0.558-1.237,0.806-2.031,0.806,c-1.402,0-2.315-0.585-2.728-1.732l-1.576-4.635h-9.801l-1.576,4.635c-0.393,1.147-1.299,1.732-2.744,1.732,c-0.704,0-1.304-0.177-1.796-0.559c-0.476-0.367-0.794-0.897-0.932-1.569c-0.034-0.193-0.056-0.411-0.056-0.649,c-0.014-0.302,0.05-0.682,0.167-1.125c0.124-0.434,0.264-0.877,0.42-1.305L46.723,47.499z M50.406,52.445h-0.069l-3.585,11.179,h7.128L50.406,52.445z"/>
<path style="fill:#FFF100;" d="M63.322,48.723c0-0.941,0.271-1.716,0.837-2.288c0.538-0.588,1.284-0.877,2.225-0.877,c0.773,0,1.416,0.215,1.948,0.636c0.53,0.427,0.862,1.015,1.008,1.732c0.062,0.257,0.077,0.527,0.062,0.797L69.394,68.56H79.57,c0.821,0,1.506,0.174,2.053,0.553c0.565,0.36,0.903,0.884,1.043,1.543c0.033,0.171,0.076,0.38,0.082,0.578,c0,0.849-0.289,1.501-0.904,1.968c-0.587,0.462-1.347,0.7-2.259,0.7H66.887c-0.944,0-1.706-0.187-2.293-0.582,c-0.593-0.379-0.959-1.013-1.147-1.893c-0.074-0.357-0.124-0.771-0.145-1.237L63.322,48.723z"/>
<path style="fill:#FFF100;" d="M83.362,48.723c0-0.941,0.283-1.716,0.83-2.288c0.554-0.588,1.298-0.877,2.231-0.877,c0.766,0,1.417,0.215,1.94,0.636c0.539,0.427,0.885,1.015,1.029,1.732c0.048,0.257,0.076,0.527,0.063,0.797l0.013,9.221l9.56-10.998,c0.43-0.463,0.811-0.8,1.16-1.051c0.36-0.222,0.776-0.337,1.279-0.337c0.668,0,1.271,0.192,1.825,0.575,c0.544,0.366,0.876,0.855,1.001,1.478c0.013,0.026,0.019,0.109,0.047,0.241c0,0.09,0,0.186,0.021,0.261,c-0.008,0.436-0.111,0.816-0.291,1.147c-0.187,0.344-0.412,0.672-0.725,1.016l-6.252,6.839l7.406,11.715l0.22,0.359,c0.497,0.807,0.794,1.382,0.878,1.774c0,0.022,0.015,0.097,0.041,0.18v0.209c0,1.09-0.309,1.857-0.919,2.333,c-0.601,0.463-1.347,0.711-2.203,0.711c-0.622,0-1.139-0.109-1.526-0.331c-0.394-0.254-0.803-0.669-1.189-1.331l-7.025-11.287,l-3.336,3.487l0.028,6.299c-0.013,0.951-0.284,1.72-0.836,2.292c-0.552,0.582-1.299,0.871-2.238,0.871,c-0.76,0-1.409-0.219-1.949-0.634c-0.53-0.414-0.876-0.989-1.021-1.713c-0.047-0.257-0.063-0.54-0.047-0.816L83.362,48.723z"/>
<rect style="fill:none;" width="126.604" height="126.608"/>
</svg>
