<?xml version="1.0" encoding="iso-8859-1"?>
<!-- Generator: Adobe Illustrator 16.0.0, SVG Export Plug-In . SVG Version: 6.00 Build 0)  -->
<!DOCTYPE svg PUBLIC "-//W3C//DTD SVG 1.1//EN" "http://www.w3.org/Graphics/SVG/1.1/DTD/svg11.dtd">
<svg version="1.1" id="Layer_1" xmlns="http://www.w3.org/2000/svg" xmlns:xlink="http://www.w3.org/1999/xlink" x="0px" y="0px"
	 width="126.604px" height="126.608px" viewBox="0 0 126.604 126.608" style="enable-background:new 0 0 126.604 126.608;"
	 xml:space="preserve">
<path style="fill:#005DFF;" d="M125.506,1.092c-0.794-0.926-2.048-1.136-3.21-1.075C84.419,0.043,46.536,0.03,8.656,0.024
	C6.652,0.066,4.63-0.118,2.638,0.14C1.074,0.557-0.117,2.062,0.009,3.698c0,39.735-0.007,79.477,0,119.22
	c-0.136,2.009,1.721,3.749,3.697,3.643c39.529,0.025,79.06,0.007,118.583,0.007c2.155,0.332,4.347-1.443,4.272-3.655
	c0.039-38.691-0.016-77.384,0.026-116.084C126.488,4.907,127.033,2.611,125.506,1.092"/>
<path style="fill:#FFFFFF;" d="M27.03,47.77c2.45,13.275,12.713,25.86,17.69,31.323c0.513,0.563,2.229,2.279,2.791,2.791
	c5.464,4.979,18.049,15.241,31.324,17.691c0,0,10.552,2.383,18.993-6.059c0,0,3.813-3.914,1.057-6.671l-12.97-12.969
	c0,0-2.655-2.825-5.989-0.17l-4.528,4.526c0,0-3.985,5.258-18.122-8.775l-0.128-0.127c-14.033-14.137-8.776-18.124-8.776-18.124
	l4.527-4.527c2.655-3.336-0.17-5.99-0.17-5.99L39.759,27.722c-2.756-2.757-6.67,1.056-6.67,1.056
	C24.647,37.219,27.03,47.77,27.03,47.77"/>
</svg>
