<?xml version="1.0" encoding="iso-8859-1"?>
<!-- Generator: Adobe Illustrator 16.0.0, SVG Export Plug-In . SVG Version: 6.00 Build 0)  -->
<!DOCTYPE svg PUBLIC "-//W3C//DTD SVG 1.1//EN" "http://www.w3.org/Graphics/SVG/1.1/DTD/svg11.dtd">
<svg version="1.1" id="&#xB808;&#xC774;&#xC5B4;_1" xmlns="http://www.w3.org/2000/svg" xmlns:xlink="http://www.w3.org/1999/xlink"
	 x="0px" y="0px" width="126.604px" height="126.608px" viewBox="0 0 126.604 126.608"
	 style="enable-background:new 0 0 126.604 126.608;" xml:space="preserve">
<g>
	<path style="fill:#FFFFFF;" d="M27.03,47.77c2.45,13.275,12.713,25.86,17.69,31.323c0.513,0.563,2.229,2.279,2.791,2.791
		c5.464,4.979,18.049,15.241,31.324,17.691c0,0,10.552,2.383,18.993-6.059c0,0,3.813-3.914,1.057-6.671l-12.97-12.969
		c0,0-2.655-2.825-5.989-0.17l-4.528,4.526c0,0-3.985,5.258-18.122-8.775l-0.128-0.127c-14.033-14.137-8.776-18.124-8.776-18.124
		l4.527-4.527c2.655-3.336-0.17-5.99-0.17-5.99L39.759,27.722c-2.756-2.757-6.67,1.056-6.67,1.056
		C24.647,37.219,27.03,47.77,27.03,47.77"/>
</g>
</svg>
